<?xml version="1.0" encoding="UTF-8" standalone="no"?>
<!-- Created with Inkscape (http://www.inkscape.org/) -->

<svg
   width="100mm"
   height="100mm"
   viewBox="0 0 100 100"
   version="1.1"
   id="svg1"
   xml:space="preserve"
   sodipodi:docname="logo.svg"
   inkscape:version="1.4 (e7c3feb1, 2024-10-09)"
   xmlns:inkscape="http://www.inkscape.org/namespaces/inkscape"
   xmlns:sodipodi="http://sodipodi.sourceforge.net/DTD/sodipodi-0.dtd"
   xmlns="http://www.w3.org/2000/svg"
   xmlns:svg="http://www.w3.org/2000/svg"><sodipodi:namedview
     id="namedview1"
     pagecolor="#505050"
     bordercolor="#eeeeee"
     borderopacity="1"
     inkscape:showpageshadow="0"
     inkscape:pageopacity="0"
     inkscape:pagecheckerboard="0"
     inkscape:deskcolor="#d1d1d1"
     inkscape:document-units="mm"
     showgrid="true"
     inkscape:current-layer="svg1" /><defs
     id="defs1" /><g
     id="layer"
     transform="matrix(0.83948834,0,0,0.83948834,-31.366512,-71.245391)"
     style="stroke:#ffffff;stroke-opacity:0;stroke-width:1.71413935;stroke-dasharray:none;paint-order:stroke markers fill;stroke-linecap:butt;fill:#e7af28;fill-opacity:1"><path
       id="path"
       style="fill:#e7af28;fill-opacity:1;stroke:#ffffff;stroke-width:1.71413935;stroke-linecap:butt;stroke-linejoin:round;stroke-opacity:0;stroke-dasharray:none;paint-order:stroke markers fill"
       d="m 111.09089,87.972925 c -6.13591,0.114893 -11.818875,3.253656 -15.183566,8.386051 -2.267498,12.802584 -7.596635,31.492004 -20.119702,49.497234 11.783286,27.2851 8.362055,40.3361 7.169012,56.78295 0.07953,0.18673 6.363607,-30.23943 10.664341,-48.53019 -1.341585,-1.45278 -1.062974,-4.89964 -0.306424,-7.80401 0.732703,-2.67025 2.446651,-5.15854 4.014375,-6.17686 4.075334,-16.35979 9.849004,-38.32191 9.849004,-38.32191 -0.002,-4.1e-4 0.514,-2.211214 2.40399,-1.810077 1.86324,0.395457 1.45986,2.438457 1.45986,2.438457 0,0 -5.61944,22.40344 -10.07845,38.7072 1.17289,1.56451 1.40246,4.59238 0.58136,7.66775 -0.86063,3.17629 -2.119417,5.53814 -3.970187,6.20382 -4.583665,16.77945 -12.606997,48.11226 -12.380348,47.89674 6.448519,-16.45336 15.204905,-30.78281 38.182495,-49.73468 -2.19029,-10.5302 -3.09561,-21.3627 -1.57997,-31.96833 0.81174,-8.30538 2.49515,-16.5023 5.02243,-24.455353 -3.37778,-5.443059 -9.3223,-8.761021 -15.72824,-8.778792 z" /></g></svg>
